<svg id="canvas" height="auto" xmlns="http://www.w3.org/2000/svg" version="1.1" xmlns:xlink="http://www.w3.org/1999/xlink" xmlns:svgjs="http://svgjs.dev/svgjs" viewBox="0 0 900 1000" width="auto" style="width: auto; height: auto;"><rect width="900" height="1000" fill="#000435"/><g stroke-opacity="1" stroke="#556aca" transform="matrix(1,0,0,1,63.222027221112,47.548258972445836)"><path d="M85.64290563709874,-12.144775607347004C88.67856048813617,10.286352527248532,75.18206909160419,42.7073163615097,52.050825995507424,53.48265018607731C28.919582899410656,64.25798401064492,-33.0783874588752,61.80480690860048,-53.14455293948187,52.50722734005866C-73.21071842008854,43.20964777151684,-72.698697776963,14.322649055164003,-68.3461668881326,-2.3028272251736155C-63.9936359993022,-18.928303505511234,-44.059878236068705,-34.11208177591333,-27.02936760649947,-47.24563034196704C-9.998856976930234,-60.379178908020755,15.058184682016439,-86.95426107726591,33.836896889282805,-81.1041186214959C52.61560909654917,-75.25397616572589,82.6072507860613,-34.57590374194254,85.64290563709874,-12.144775607347004C88.67856048813617,10.286352527248532,75.18206909160419,42.7073163615097,52.050825995507424,53.48265018607731" fill-opacity="0.25" fill="#556aca"/></g><g stroke-opacity="1" stroke="#556aca" transform="matrix(1,0,0,1,64.41248340071803,225.52427676169225)"><path d="M75,7.487643369761308C81.35059019267486,30.750672530419966,90.49660408526691,55.64803403051043,71.73708229819718,64.84434396439882C52.97756051112745,74.0406538982872,-13.954372702283077,69.83904292726925,-37.5571307224184,62.665502973091606C-61.15988874255372,55.49196301891396,-64.39114613274904,38.70323244878116,-69.87946582261475,21.80310423933294C-75.36778551248045,4.902976029884719,-87.73921668907307,-22.6457770771167,-70.4870488616126,-38.73526628359771C-53.23488103415214,-54.824755490078715,9.385699665212606,-82.43764927511295,33.63354114214804,-74.7338309995531C57.881382619083475,-67.03001272399327,68.64940980732514,-15.77538579089735,75,7.487643369761308C81.35059019267486,30.750672530419966,90.49660408526691,55.64803403051043,71.73708229819718,64.84434396439882" fill-opacity="0.25" fill="#556aca"/></g><g stroke-opacity="1" stroke="#556aca" transform="matrix(1,0,0,1,69.6532242883666,387.0394725937767)"><path d="M72.2492570952737,0.41478178227945506C76.17910384386067,22.347553903622906,74.5484859559084,49.743754468365125,56.25694310669613,66.0777459902869C37.96540025748385,82.41173751220867,-15.623842815550631,104.58993214450312,-37.499999999999986,98.41873091381012C-59.37615718444934,92.24752968311712,-80.01803986636023,53.5407291038177,-75,29.050538606128875C-69.98196013363977,4.560348108440049,-25.338071237701055,-32.76084118167239,-7.391760801838672,-48.52241207232284C10.554549634023711,-64.28398296297328,19.40435963232222,-73.67508571354087,32.677862615174284,-65.51888673777381C45.95136559802635,-57.362687762006765,68.31941034668674,-21.517990339063996,72.2492570952737,0.41478178227945506C76.17910384386067,22.347553903622906,74.5484859559084,49.743754468365125,56.25694310669613,66.0777459902869" fill-opacity="0.25" fill="#556aca"/></g><g stroke-opacity="1" stroke="#556aca" transform="matrix(1,0,0,1,60.022024177882564,520.8083370725107)"><path d="M74.95940341736362,13.003699490542623C80.8653791630448,40.20527294232991,72.22330566089985,59.090849155446215,54.30201361136652,65.43737038581801C36.380721561833184,71.78389161618982,-11.01801327794195,64.7844114192266,-32.56834887983637,51.082826872773424C-54.118684481730796,37.38124232632025,-76.12384317276025,-0.42323205190922053,-75,-16.77213689290105C-73.87615682723975,-33.12104173389288,-41.469649699488144,-33.51061326784343,-25.825289843274916,-47.010602173177546C-10.180929987061688,-60.51059107851166,2.0687102605062755,-107.77445393552576,18.866159137279364,-97.77207032490573C35.66360801405246,-87.7696867142857,69.05342767168243,-14.197873961244671,74.95940341736362,13.003699490542623C80.8653791630448,40.20527294232991,72.22330566089985,59.090849155446215,54.30201361136652,65.43737038581801" fill-opacity="0.25" fill="#556aca"/></g><g stroke-opacity="1" stroke="#556aca" transform="matrix(1,0,0,1,70.41349185622815,637.8399138188366)"><path d="M57.942613765652425,-7.85983513651739C57.402956120648405,17.5253721935858,53.50598869225942,57.931632433459505,37.50000000000001,72.63253603363461C21.494011307740596,87.33343963380972,-16.232775668864623,90.19923447332476,-38.093318387904034,80.34558646453323C-59.95386110694345,70.49193845574169,-95.19025892136673,41.0314755661187,-93.66325631423646,13.510647980885395C-92.13625370710619,-14.010179604347908,-51.33150310916588,-69.24781972555493,-28.93130274512245,-84.7793790468666C-6.53110238107902,-100.31093836817826,26.25895978489499,-92.49863193204273,40.737945870024134,-79.67870794698453C55.21693195515328,-66.85878396192633,58.482271410656445,-33.245042466620575,57.942613765652425,-7.85983513651739C57.402956120648405,17.5253721935858,53.50598869225942,57.931632433459505,37.50000000000001,72.63253603363461" fill-opacity="0.25" fill="#556aca"/></g><g stroke-opacity="1" stroke="#556aca" transform="matrix(1,0,0,1,50.51004598644276,794.1314355609167)"><path d="M71.04702189294139,34.56190102154327C71.09800575644448,53.444635783301294,77.33925159993859,60.62310848198252,56.13382113473058,62.8095764381087C34.92839066952257,64.99604439423487,-34.32992404251824,59.79239842808106,-56.185560898306676,47.68070875830035C-78.04119775409511,35.56901908851964,-78.61024864506479,8.426463853880836,-75,-9.860561580575563C-71.38975135493521,-28.147587015031963,-56.32872202020326,-55.27039875646072,-34.52406902791792,-62.04144384843804C-12.71941603563258,-68.81248894041536,38.232736133568785,-66.58738961076969,55.827917953712,-50.48683213243947C73.42309977385523,-34.38627465410924,70.9960380294383,15.679166259785244,71.04702189294139,34.56190102154327C71.09800575644448,53.444635783301294,77.33925159993859,60.62310848198252,56.13382113473058,62.8095764381087" fill-opacity="0.25" fill="#556aca"/></g><g stroke-opacity="1" stroke="#556aca" transform="matrix(1,0,0,1,65.29736819655645,925.5493243864993)"><path d="M43.07921060518175,-14.90859059112691C39.98785270271265,6.097724211906598,51.81995152995257,66.62127991393947,37.572998804059964,76.84879062583198C23.32604607816736,87.07630133772449,-25.631142422788212,57.836022391786976,-42.402505750173894,46.456473680228086C-59.17386907755957,35.076924968669196,-60.76194854530229,27.171487293529967,-63.05518116025413,8.571498356478635C-65.34841377520597,-10.028490580572697,-76.02462266973974,-55.51669385060529,-56.16190143988496,-65.14345994207991C-36.29918021003017,-74.77022603355454,39.580960878030126,-57.56157641752791,56.12114621887457,-49.18909819236907C72.66133155971902,-40.81661996721024,46.17056850765085,-35.914905394160414,43.07921060518175,-14.90859059112691C39.98785270271265,6.097724211906598,51.81995152995257,66.62127991393947,37.572998804059964,76.84879062583198" fill-opacity="0.25" fill="#556aca"/></g><g stroke-opacity="1" stroke="#556aca" transform="matrix(1,0,0,1,153.8810372158374,58.44216949286498)"><path d="M65.72373966405023,25.811011211189665C66.17189276539142,51.35069294408177,38.6944101216375,50.61793491956043,21.480458985399693,54.49091435224079C4.266507849161879,58.36389378492115,-23.25022865794032,57.36086031465095,-37.559967153376654,49.04888780727182C-51.86970564881299,40.73691529989269,-61.954341825360885,23.505667947922365,-64.37797198721833,4.619079307966025C-66.80160214907578,-14.267509331990315,-65.96333351861648,-47.04293480695323,-52.101748124521336,-64.27064403246621C-38.2401627304262,-81.49835325797919,-0.8460409207427517,-113.76078525238785,18.791540377352508,-98.74717604511187C38.42912167544777,-83.7335668378359,65.27558656270904,0.27132947829755594,65.72373966405023,25.811011211189665C66.17189276539142,51.35069294408177,38.6944101216375,50.61793491956043,21.480458985399693,54.49091435224079" fill-opacity="0.25" fill="#556aca"/></g><g stroke-opacity="1" stroke="#556aca" transform="matrix(1,0,0,1,150.53799633095548,178.62668276912962)"><path d="M71.67199933495174,-2.1316282072803006e-14C75.45068194216456,20.844108516002063,69.07403950394053,48.84269231636565,50.781555522851534,54.19445319508671C32.48907154176254,59.54621407380777,-17.34458303792654,44.26137369614688,-38.0829045515822,32.11056527232632C-58.821226065237866,19.959756848505755,-76.44272400853711,3.0064698462745945,-73.64837355908244,-18.710397347836693C-70.85402310962778,-40.42726454194798,-38.27644076129704,-89.49733780015988,-21.316801854854198,-98.1906378923414C-4.357162948411361,-106.88393798452292,12.611326347940256,-87.23530421631604,28.10945987957458,-70.8701979009258C43.6075934112089,-54.50509158553557,67.8933167277389,-20.844108516002105,71.67199933495174,-2.1316282072803006e-14C75.45068194216456,20.844108516002063,69.07403950394053,48.84269231636565,50.781555522851534,54.19445319508671" fill-opacity="0.25" fill="#556aca"/></g><g stroke-opacity="1" stroke="#556aca" transform="matrix(1,0,0,1,165.0972124522998,361.10207210958094)"><path d="M71.83024621560702,14.15473328567689C77.32568773670975,38.397200132000286,78.10491854196589,79.92438176770379,57.51333840174856,88.5184813103508C36.92175826153124,97.1125808529978,-27.191635379343136,81.26850280339032,-51.71923462569695,65.71933054155886C-76.24683387205076,50.1701582797274,-95.13854644474696,11.369261337777314,-89.65225707637431,-4.776552260637963C-84.16596770800166,-20.92236585905324,-37.83365614071212,-22.46225646444087,-18.801498415461047,-31.155551048932807C0.23065930979002403,-39.848845633424745,9.435398503287448,-64.48803382335787,24.540689275132127,-56.93631976758959C39.6459800469768,-49.38460571182131,66.33480469450429,-10.087733560646505,71.83024621560702,14.15473328567689C77.32568773670975,38.397200132000286,78.10491854196589,79.92438176770379,57.51333840174856,88.5184813103508" fill-opacity="0.25" fill="#556aca"/></g><g stroke-opacity="1" stroke="#556aca" transform="matrix(1,0,0,1,165.65312797438986,513.8200870409123)"><path d="M74.10961565734326,15.046432393110386C76.64051277464866,39.8352736922592,68.25045040065595,59.46297841730275,44.153078492894906,65.07082718318216C20.05570658513386,70.67867594906157,-47.76840239380924,56.5133360144619,-70.47461578922304,48.693524988386855C-93.18082918463683,40.87371396231181,-100.32178282767333,39.52873624354554,-92.08420187958788,18.151961026731875C-83.84662093150243,-3.2248141900817906,-41.224446378818755,-62.59809603942135,-21.049130100710357,-79.56712631249512C-0.8738138226019565,-96.53615658556889,13.107904829386927,-99.43114706264497,28.967695789062528,-83.66222061171072C44.82748674873813,-67.89329416077648,71.57871854003785,-9.742408906038428,74.10961565734326,15.046432393110386C76.64051277464866,39.8352736922592,68.25045040065595,59.46297841730275,44.153078492894906,65.07082718318216" fill-opacity="0.25" fill="#556aca"/></g><g stroke-opacity="1" stroke="#556aca" transform="matrix(1,0,0,1,139.23010807219538,669.5303196446438)"><path d="M75,-7.101506962265756C74.62052225659657,15.365706101315403,50.068816835215074,64.2030176277318,35.22313353957937,81.4506032137244C20.37745024394367,98.69818879971702,3.8744033466829464,115.10811200704008,-14.074099773814218,96.38400655368991C-32.02260289431138,77.65990110033975,-69.10271923547754,-1.7560946810452016,-72.46788518340361,-30.894029506376587C-75.83305113132968,-60.03196433170797,-52.59307632527127,-74.7004947880674,-34.26509546137068,-78.4436023982984C-15.937114597470085,-82.18671000852939,19.289150756438172,-65.24302440710133,37.49999999999995,-53.352675167762555C55.710849243561725,-41.46232592842378,75.37947774340343,-29.568720025846915,75,-7.101506962265756C74.62052225659657,15.365706101315403,50.068816835215074,64.2030176277318,35.22313353957937,81.4506032137244" fill-opacity="0.25" fill="#556aca"/></g><g stroke-opacity="1" stroke="#556aca" transform="matrix(1,0,0,1,174.36463413323537,777.9458321934964)"><path d="M64.55547429928177,9.981227172053629C61.399779065104646,28.590810387583495,43.375002681714236,51.986905658663446,26.36575696516728,61.116860786119936C9.356511248620318,70.24681591357643,-22.885728647153336,74.65340482138859,-37.499999999999986,64.76095793679255C-52.114271352846636,54.86851105219652,-66.4816929042276,21.231642382227648,-61.31987115191264,1.7621794785437288C-56.15804939959769,-17.70728342514019,-24.29903607313401,-43.33868315437713,-6.529069486110231,-52.05581948531096C11.240897100913546,-60.772955816244796,33.45250440599803,-60.880146283286706,45.29992837023003,-50.54063850705927C57.14735233446203,-40.201130730831835,67.7111695334589,-8.628356043476238,64.55547429928177,9.981227172053629C61.399779065104646,28.590810387583495,43.375002681714236,51.986905658663446,26.36575696516728,61.116860786119936" fill-opacity="0.25" fill="#556aca"/></g><g stroke-opacity="1" stroke="#556aca" transform="matrix(1,0,0,1,139.0589684060376,904.8342735481388)"><path d="M112.05761948452536,-5.742647932357478C113.85723752992246,9.587489191474278,82.96907097892799,41.281509522630444,56.091114309857055,55.10920696029488C29.213157640786125,68.93690439795931,-28.655652948171113,88.97560759574516,-49.21012052990023,77.22353669362914C-69.76458811162935,65.47146579151313,-67.21426896013011,8.292688543842452,-67.23569118051765,-15.403218452401216C-67.25711340090518,-39.099125448644884,-68.0935033885575,-61.373839062117135,-49.33865385222548,-64.95190528383287C-30.583804315893456,-68.52997150554862,18.39402714801602,-46.73982534127489,45.29340603747449,-36.871615782695656C72.19278492693296,-27.003406224116425,110.25800143912826,-21.072785056189232,112.05761948452536,-5.742647932357478C113.85723752992246,9.587489191474278,82.96907097892799,41.281509522630444,56.091114309857055,55.10920696029488" fill-opacity="0.25" fill="#556aca"/></g><g stroke-opacity="1" stroke="#556aca" transform="matrix(1,0,0,1,250.99855514965725,73.17188598160041)"><path d="M57.04385104825202,14.930586636433596C57.68627750218081,40.45677266858587,68.56531062010728,75.32017968271234,55.55932262685784,83.66232734676652C42.55333463360841,92.0044750108207,-5.076974348021935,78.73940458367787,-20.99207691124458,64.9834726207587C-36.90717947446723,51.22754065783953,-34.943192303235264,28.365649529673544,-39.93129275247804,1.1267355692515153C-44.91939320172082,-26.112178391170513,-66.1933557159951,-86.67975707254037,-50.92067960670124,-98.45001114177347C-35.64800349740738,-110.22026521100658,33.71067546079291,-88.39155514251499,51.70476390328512,-69.49478884614715C69.69885234577733,-50.5980225497793,56.40142459432324,-10.595599395718683,57.04385104825202,14.930586636433596C57.68627750218081,40.45677266858587,68.56531062010728,75.32017968271234,55.55932262685784,83.66232734676652" fill-opacity="0.25" fill="#556aca"/></g><g stroke-opacity="1" stroke="#556aca" transform="matrix(1,0,0,1,256.178488327986,238.34143185755585)"><path d="M90.21463483221045,-7.6416123944759775C89.9581003256632,16.092205667028278,43.24326526532491,49.524303225385744,18.8393580284859,63.51496578034897C-5.564549208353107,77.50562833531221,-40.8764006837104,83.77020577194992,-56.20880858882359,76.30236293530342C-71.54121649393677,68.83452009865692,-77.10020205083238,43.207612613094916,-73.1550894021932,18.707908760469998C-69.20997675355402,-5.791795092154921,-48.12707510864891,-54.429884955588335,-32.53813269698848,-70.69586018044609C-16.949190285328044,-86.96183540530384,-0.08022952043041087,-89.39698388633825,20.37856506776941,-78.88794258867657C40.83735965596924,-68.37890129101488,90.4711693387577,-31.375430455980233,90.21463483221045,-7.6416123944759775C89.9581003256632,16.092205667028278,43.24326526532491,49.524303225385744,18.8393580284859,63.51496578034897" fill-opacity="0.25" fill="#556aca"/></g><g stroke-opacity="1" stroke="#556aca" transform="matrix(1,0,0,1,234.2450063049074,344.1947122330244)"><path d="M108.46935790209936,-16.56099350228726C117.04052923633883,0.8166854678359066,91.74821924165107,20.36249584905535,70.25925051611733,31.272606717468054C48.770281790583596,42.18271758588076,1.3753876991911405,57.58504759776237,-20.464454451103045,48.89967170818896C-42.304296601397226,40.214295818615554,-55.323458764862096,-7.366495356680771,-60.779802385647784,-20.839648619972383C-66.23614600643347,-34.312801883263994,-66.47118699187187,-23.246944791010947,-53.20251617581716,-31.93924787156071C-39.93384535976244,-40.63155095211047,-8.113089835638881,-75.55650949814986,18.83222251068054,-72.99346710327096C45.777534856999964,-70.43042470839205,99.8981865678599,-33.93867247241043,108.46935790209936,-16.56099350228726C117.04052923633883,0.8166854678359066,91.74821924165107,20.36249584905535,70.25925051611733,31.272606717468054" fill-opacity="0.25" fill="#556aca"/></g><g stroke-opacity="1" stroke="#556aca" transform="matrix(1,0,0,1,256.15060324150113,494.8456049232933)"><path d="M93.70822710589843,15.544932197977147C93.70957567639162,37.335534599361424,81.86554935208562,68.2937375221531,56.2055898941527,81.99359541875546C30.545630436219778,95.69345331535783,-35.68412808197867,111.05500228668424,-60.251529641699115,97.74407957759138C-84.81893120141956,84.43315686849851,-94.99074107111983,30.385434768160227,-91.19881946416999,2.1280591641982483C-87.40689785722014,-26.12931643976373,-62.06605298922729,-63.32049435388909,-37.50000000000003,-71.8001740461805C-12.933947010772773,-80.27985373847191,34.32946062021047,-63.30753669690982,56.19749847119354,-48.75001898955021C78.06553632217661,-34.192501282190605,93.70687853540524,-6.245670203407133,93.70822710589843,15.544932197977147C93.70957567639162,37.335534599361424,81.86554935208562,68.2937375221531,56.2055898941527,81.99359541875546" fill-opacity="0.25" fill="#556aca"/></g><g stroke-opacity="1" stroke="#556aca" transform="matrix(1,0,0,1,247.44189201900326,623.0317703210991)"><path d="M57.032396999080916,-2.1316282072803006e-14C48.433212171234274,23.420019779870696,36.23356097509694,55.93672540384981,18.79263284117324,69.0096575637384C1.3517047072495387,82.082589723627,-30.435004724939848,87.68559662583507,-47.61317180446129,78.43759295933152C-64.79133888398273,69.18958929282797,-82.63636990283702,34.82323746767232,-84.2763696359554,13.52163556471708C-85.91636936907379,-7.779966338238161,-83.23052211053968,-35.20000234503276,-57.4531702031716,-49.37201845839992C-31.675818295803516,-63.544034571767085,51.30681394121102,-79.73913085855256,70.38774180825311,-71.51046111548591C89.4686696752952,-63.281791372419264,65.63158182692756,-23.42001977987074,57.032396999080916,-2.1316282072803006e-14C48.433212171234274,23.420019779870696,36.23356097509694,55.93672540384981,18.79263284117324,69.0096575637384" fill-opacity="0.25" fill="#556aca"/></g><g stroke-opacity="1" stroke="#556aca" transform="matrix(1,0,0,1,253.68930557925654,817.5052070932967)"><path d="M54.41426269267434,-17.320297682688558C51.375984593105606,1.4872806493177606,34.96359583316489,15.063741628403816,21.608934850768243,29.875635704083734C8.2542738683716,44.68752977976365,-6.914040599220304,80.38333828028229,-25.71370320170552,71.55106677139095C-44.51336580419074,62.71879526249961,-86.81964525710058,-3.119612320007125,-91.18904076414307,-23.117993349264296C-95.55843627118557,-43.11637437852147,-73.7680169460145,-38.46391258103708,-51.93007624396054,-48.43921940415206C-30.092135541906586,-58.41452622726705,22.114546958741524,-88.15632124153143,39.83860344818067,-82.96983428795419C57.56265993761981,-77.78334733437694,57.45254079224308,-36.12787601469488,54.41426269267434,-17.320297682688558C51.375984593105606,1.4872806493177606,34.96359583316489,15.063741628403816,21.608934850768243,29.875635704083734" fill-opacity="0.25" fill="#556aca"/></g><g stroke-opacity="1" stroke="#556aca" transform="matrix(1,0,0,1,267.7916338792675,906.4509866594126)"><path d="M82.54272603718402,-32.909701077647284C78.96663710964238,-13.709892937770366,47.495452897045695,34.75533964475957,30.515458953760948,54.18270319948767C13.535465010476202,73.61006675421577,-3.3051864461483653,91.83409620358819,-19.337237622524455,83.65448025072126C-35.36928879890054,75.47486429785434,-64.9556328648729,31.991886022433388,-65.6768481044956,5.10500748228614C-66.39806334411831,-21.781871057861107,-43.27266916417845,-66.64659880315222,-23.664529060260712,-77.66679099016221C-4.056388956342971,-88.68698317717221,34.27078333610338,-68.47566062519299,51.97199251901084,-61.01614563977383C69.6732017019183,-53.55663065435468,86.11881496472567,-52.109509217524206,82.54272603718402,-32.909701077647284C78.96663710964238,-13.709892937770366,47.495452897045695,34.75533964475957,30.515458953760948,54.18270319948767" fill-opacity="0.25" fill="#556aca"/></g><g stroke-opacity="1" stroke="#556aca" transform="matrix(1,0,0,1,345.5665486066192,60.41070652127329)"><path d="M85.87544384714877,-2.1316282072803006e-14C91.62051131414466,23.854962079877755,73.84402356405303,49.75816304397066,53.281915355924916,65.37503853174175C32.7198071477968,80.99191401951285,-18.78698390464256,107.13688775346118,-37.4972054016199,93.70125292662652C-56.20742689859724,80.26561809979187,-60.799568844057305,11.20342260581035,-58.97941362593913,-15.238770429266218C-57.15925840782096,-41.68096346434278,-39.54142812289232,-54.532578030789765,-26.57627409291088,-64.95190528383287C-13.611120062929436,-75.37123253687598,0.06955756393959689,-88.58005149483036,18.81151055394954,-77.75473394752488C37.55346354395948,-66.92941640021941,80.13037638015288,-23.854962079877797,85.87544384714877,-2.1316282072803006e-14C91.62051131414466,23.854962079877755,73.84402356405303,49.75816304397066,53.281915355924916,65.37503853174175" fill-opacity="0.25" fill="#556aca"/></g><g stroke-opacity="1" stroke="#556aca" transform="matrix(1,0,0,1,361.02692291229397,189.57455967205064)"><path d="M84.17027270639582,14.187489523560124C78.41893468751198,35.524589589651285,41.26762406819797,41.769229082851936,20.989245283798667,48.02186374747376C0.7108664993993656,54.27449841209558,-24.326164144621025,62.45873378623165,-37.499999999999986,51.70329751129108C-50.67383585537895,40.94786123635052,-61.1588185199259,-1.4217233370208557,-58.053769848475085,-16.51075390216963C-54.94872117702427,-31.5997844673184,-37.79488184555786,-28.249222088450956,-18.869707971295064,-38.83088587960155C0.05546590296773246,-49.41254967075215,38.323943284153216,-88.83713254960017,55.4972733971017,-80.00073664907322C72.67060351005019,-71.16434074854627,89.92161072527966,-7.14961054253104,84.17027270639582,14.187489523560124C78.41893468751198,35.524589589651285,41.26762406819797,41.769229082851936,20.989245283798667,48.02186374747376" fill-opacity="0.25" fill="#556aca"/></g><g stroke-opacity="1" stroke="#556aca" transform="matrix(1,0,0,1,331.5150377829987,334.64964883212343)"><path d="M97.21902629570859,-5.620648505661052C99.41052422603215,20.053610239930805,57.36964562252554,80.69482350538725,37.50000000000001,95.57531971530815C17.63035437747447,110.45581592522906,-5.703760843860767,98.92603037613898,-21.998847439444624,83.6623287538644C-38.293934035028485,68.39862713158982,-59.804284822854925,28.762148987943515,-60.27051957350315,3.9931099816606377C-60.73675432415138,-20.77592902462224,-38.89984460859426,-54.541348160515604,-24.79625594333396,-64.95190528383287C-10.692667278073666,-75.36246240715013,4.015132044884854,-68.35877555460495,24.351012418058612,-58.47023275824297C44.68689279123237,-48.581689961881004,95.02752836538502,-31.29490725125291,97.21902629570859,-5.620648505661052C99.41052422603215,20.053610239930805,57.36964562252554,80.69482350538725,37.50000000000001,95.57531971530815" fill-opacity="0.25" fill="#556aca"/></g><g stroke-opacity="1" stroke="#556aca" transform="matrix(1,0,0,1,325.3068375023615,478.32317419602583)"><path d="M77.25325788766031,-0.06370147671371029C74.47186683923829,24.031533158125036,59.578433854465544,67.94356852248868,37.50000000000001,81.36323065037524C15.421566145534467,94.78289277826181,-36.467345239132925,96.17237148709884,-55.217345239132925,80.4542712906057C-73.96734523913292,64.73617109411256,-74.73770010603583,11.611507818272514,-75,-12.945370528583641C-75.26229989396417,-37.5022488754398,-78.32253565133995,-58.50986435218564,-56.79114460291791,-66.88699879053124C-35.25975355449587,-75.26413322887683,31.847612542102485,-74.34539337762682,54.18834629053219,-63.20817715865723C76.5290800389619,-52.07096093968764,80.03464893608233,-24.158936111552457,77.25325788766031,-0.06370147671371029C74.47186683923829,24.031533158125036,59.578433854465544,67.94356852248868,37.50000000000001,81.36323065037524" fill-opacity="0.25" fill="#556aca"/></g><g stroke-opacity="1" stroke="#556aca" transform="matrix(1,0,0,1,328.72197779890695,635.2539491497166)"><path d="M98.22226128763613,-14.209942698229622C95.80915317629353,8.244205363049222,41.677342551141585,68.0455897680299,15.684887688216309,78.83677196724639C-10.307567174708966,89.62795416646289,-41.94963451535064,58.80884632295407,-57.732467889915526,50.537150497069305C-73.51530126448041,42.26545467118454,-79.3233690866156,45.86206188651164,-79.012112559173,29.206597011937795C-78.70085603173041,12.551132137363954,-74.06087021116747,-35.213186514979675,-55.86492872525999,-49.39563875037375C-37.66898723935252,-63.57809098576782,4.482338020789182,-61.75239907578402,30.16353635627187,-55.88811640042667C55.84473469175455,-50.023833725069316,100.63536939897872,-36.66409075950847,98.22226128763613,-14.209942698229622C95.80915317629353,8.244205363049222,41.677342551141585,68.0455897680299,15.684887688216309,78.83677196724639" fill-opacity="0.25" fill="#556aca"/></g><g stroke-opacity="1" stroke="#556aca" transform="matrix(1,0,0,1,327.7436235420557,801.2198404792855)"><path d="M95.29971378348134,-15.268403135724935C88.55876134332182,3.030596756319717,59.31997893286663,44.471516876843275,34.438179685955085,56.080279702103866C9.55638043904354,67.68904252736445,-33.098507327194156,65.10804666386696,-53.991081697987944,54.3841738158386C-74.88365606878173,43.66030096781024,-93.37615906068787,12.607538834936665,-90.91726653880767,-8.262957386066319C-88.45837401692746,-29.133453607069303,-66.87125337766007,-63.26367646616301,-39.23772656670676,-70.8388035101793C-11.604199755753452,-78.41393055419559,52.46098760188083,-62.975453045906455,74.88389432691218,-53.71371965016406C97.30680105194354,-44.45198625442166,102.04066622364086,-33.567403027769586,95.29971378348134,-15.268403135724935C88.55876134332182,3.030596756319717,59.31997893286663,44.471516876843275,34.438179685955085,56.080279702103866" fill-opacity="0.25" fill="#556aca"/></g><g stroke-opacity="1" stroke="#556aca" transform="matrix(1,0,0,1,348.4893580113028,953.9334328659158)"><path d="M96.86811848712705,-6.179038155158199C99.2884709310133,14.617063569968188,61.705024541957044,62.18926130728523,36.50554643123685,74.04441854711708C11.306068320516662,85.89957578694893,-40.19255820141205,79.74631616396823,-54.328750177194074,64.9519052838329C-68.4649421529761,50.15749440369758,-51.95305983279631,4.25806984822291,-48.31160542345532,-14.722046733694885C-44.670151014114325,-33.70216331561268,-44.195863253043875,-42.927103362682814,-32.480023721148086,-48.928794207673874C-20.764184189252298,-54.930485052664935,0.42540806654023555,-57.85715114572719,21.983431767919424,-50.73219180364124C43.54145546929861,-43.6072324615553,94.4477660432408,-26.975139880284587,96.86811848712705,-6.179038155158199C99.2884709310133,14.617063569968188,61.705024541957044,62.18926130728523,36.50554643123685,74.04441854711708" fill-opacity="0.25" fill="#556aca"/></g><g stroke-opacity="1" stroke="#556aca" transform="matrix(1,0,0,1,462.32222413625686,43.15933385616471)"><path d="M75.02601235000267,18.674533345131046C75.02600797098717,39.69594639133035,50.89764971330706,51.88159982554387,37.50000000000001,64.22404380032646C24.102350286692953,76.56648777510904,13.479506094042733,97.8906678040376,-5.359885929839663,92.72919719382654C-24.19927795372206,87.56772658361547,-68.03328400055481,58.22488210901402,-75.53635214329438,33.25522013906001C-83.03942028603394,8.285558169106,-69.21769118917499,-41.22883218990927,-50.37829478627709,-57.0887746258975C-31.538898383379184,-72.94871706188573,16.599308418046427,-74.5316524720408,37.50002627409305,-61.904434476869376C58.40074413013968,-49.27721648169795,75.02601672901818,-2.346879701068257,75.02601235000267,18.674533345131046C75.02600797098717,39.69594639133035,50.89764971330706,51.88159982554387,37.50000000000001,64.22404380032646" fill-opacity="0.25" fill="#556aca"/></g><g stroke-opacity="1" stroke="#556aca" transform="matrix(1,0,0,1,459.97161104501913,192.7627296247901)"><path d="M106.37796443982053,-25.43474315778927C108.7459180296417,-6.836977638170449,57.86736509909245,32.47254905682958,32.99731572260715,47.97820717222049C8.12726634612184,63.48386528761141,-22.10434176823096,78.46402894566228,-42.84233181909132,67.59920553455622C-63.58032186995168,56.73438212345017,-89.56844680309837,5.5662252224793285,-91.43062458255503,-17.21073329441584C-93.29280236201168,-39.98769181131101,-72.38543495687047,-61.32960345830201,-54.01539849583128,-69.06254556681478C-35.645362034792086,-76.79548767532755,-7.942632972261851,-70.8796863469967,18.789594183680116,-63.60838594549245C45.52182133962208,-56.3370855439882,104.01001084999936,-44.03250867740809,106.37796443982053,-25.43474315778927C108.7459180296417,-6.836977638170449,57.86736509909245,32.47254905682958,32.99731572260715,47.97820717222049" fill-opacity="0.25" fill="#556aca"/></g><g stroke-opacity="1" stroke="#556aca" transform="matrix(1,0,0,1,437.3303893641686,340.13292262402)"><path d="M82.86169423178953,15.87014275814586C87.19488288258896,37.919429748176384,52.38119068003276,56.342647511111004,29.473032871887703,67.33050313926242C6.564875063742651,78.31835876741383,-39.33863720357858,90.511125118821,-54.58725261708079,81.79727652705435C-69.83586803058301,73.0834279352877,-67.95406240229494,39.50560855714376,-62.01865960912559,15.047411588662555C-56.083256815956254,-9.410785379818648,-29.890262620767558,-51.616466885569,-18.974835858064765,-64.95190528383287C-8.059409095361971,-78.28734368209675,-13.498854047884544,-78.43556014125048,3.4739009670911702,-64.96521880092068C20.446655982066886,-51.49487746059089,78.5285055809901,-6.17914423188466,82.86169423178953,15.87014275814586C87.19488288258896,37.919429748176384,52.38119068003276,56.342647511111004,29.473032871887703,67.33050313926242" fill-opacity="0.25" fill="#556aca"/></g><g stroke-opacity="1" stroke="#556aca" transform="matrix(1,0,0,1,453.6708951721683,491.49372347473485)"><path d="M79.37450862467222,-14.232697287854194C77.43873562678837,7.449734734239726,41.67875921691231,69.28264654340313,23.368792650550397,82.45833212238662C5.058826084188485,95.63401770137011,-16.75956491726943,79.91114629717157,-30.485290773499266,64.82141618604678C-44.2110166297291,49.73168607492198,-57.81644428241182,16.667019942739984,-58.98556248682861,-8.080048544362125C-60.1546806912454,-32.82711703146423,-53.16149885411372,-77.06829282559674,-37.50000000000003,-83.66099473656587C-21.83850114588634,-90.253696647535,15.5043458670748,-59.20764291829552,34.98343063785351,-47.636260010176905C54.462515408632214,-36.06487710205829,81.31028162255606,-35.915129309948114,79.37450862467222,-14.232697287854194C77.43873562678837,7.449734734239726,41.67875921691231,69.28264654340313,23.368792650550397,82.45833212238662" fill-opacity="0.25" fill="#556aca"/></g><g stroke-opacity="1" stroke="#556aca" transform="matrix(1,0,0,1,433.993807892235,657.3389149207226)"><path d="M105.40234941781532,6.73310296406271e-11C106.41451599277545,18.921628795633463,49.84968126396525,37.179929520710935,27.404334580828582,45.268373643973334C4.958987897691909,53.35681776723573,-6.565414808946986,55.48831168856309,-29.269730681004724,48.530664739641736C-51.974046553062465,41.573017790720385,-107.57927293509417,20.243222530970552,-108.82156065151784,3.522491950445243C-110.06384836794152,-13.198238630080066,-58.41560627664433,-39.829736896865334,-36.72345697954673,-51.79371874351012C-15.031307682449132,-63.757700590154904,-2.3562992684925845,-76.89368558668636,21.331335131067757,-68.26139912942345C45.0189695306281,-59.629112672160545,104.39018284285518,-18.9216287954988,105.40234941781532,6.73310296406271e-11C106.41451599277545,18.921628795633463,49.84968126396525,37.179929520710935,27.404334580828582,45.268373643973334" fill-opacity="0.25" fill="#556aca"/></g><g stroke-opacity="1" stroke="#556aca" transform="matrix(1,0,0,1,457.43998925904634,818.0520156294874)"><path d="M70.00726349717269,-13.002201902612327C65.55277887456162,5.53002920688564,59.3612152478395,27.630804596452744,41.443337998310724,46.24148137315486C23.525460748781946,64.85215814985698,-19.291332877334053,105.99417327443953,-37.499999999999986,98.66185875760037C-55.708667122665915,91.32954424076121,-64.83466057940123,28.464418737871682,-67.80866473768488,2.247594272119855C-70.78266889596853,-23.969230193631972,-78.00717669497884,-47.43917144425179,-55.34402494970185,-58.639088036910586C-32.680873204424856,-69.83900462956939,47.27836432616466,-72.55805297288263,68.17024573397708,-64.95190528383293C89.0621271417895,-57.34575759478322,74.46174811978375,-31.534433012110295,70.00726349717269,-13.002201902612327C65.55277887456162,5.53002920688564,59.3612152478395,27.630804596452744,41.443337998310724,46.24148137315486" fill-opacity="0.25" fill="#556aca"/></g><g stroke-opacity="1" stroke="#556aca" transform="matrix(1,0,0,1,459.93443955827746,939.406212933307)"><path d="M87.13393437565473,11.46854167305689C80.53589485556812,37.131280774032774,39.871309735232636,73.97659509100441,16.608453341598395,80.61845824679689C-6.654403052035846,87.26032140258937,-41.92819015364683,64.38438435579505,-52.44320398615071,51.31972060781172C-62.958217818654596,38.25505685982838,-48.4104174549786,16.199398260894114,-46.48162965342492,2.2304757588968656C-44.552841851871236,-11.738446743100381,-57.98353052941913,-19.895739051179213,-40.87047717682862,-32.49381440417176C-23.75742382423812,-45.0918897571643,34.86262187003753,-80.6850357052632,56.19669046211809,-73.35797635905843C77.53075905419865,-66.03091701285365,93.73197389574135,-14.194197427918997,87.13393437565473,11.46854167305689C80.53589485556812,37.131280774032774,39.871309735232636,73.97659509100441,16.608453341598395,80.61845824679689" fill-opacity="0.25" fill="#556aca"/></g><g stroke-opacity="1" stroke="#556aca" transform="matrix(1,0,0,1,569.0313867357768,51.69897499430039)"><path d="M73.71779826176044,9.580285234480542C71.49553570472906,28.643343507427563,60.1981278341397,55.5017921998675,41.66182812384629,62.283547782868744C23.12552841355289,69.06530336586998,-18.524061787100536,59.81614408737499,-37.499999999999986,50.27081873248799C-56.475938212899436,40.72549337760099,-72.1938011535504,25.171840037554635,-72.19380115355041,5.011595653546749C-72.19380115355042,-15.148648730461137,-58.69820076993085,-61.1729146534993,-37.50000000000003,-70.69064757155932C-16.30179923006921,-80.20838048961934,36.45910375574108,-65.47329065582004,54.995403466034496,-52.0948018548134C73.53170317632791,-38.71631305380675,75.9400608187918,-9.48277303846648,73.71779826176044,9.580285234480542C71.49553570472906,28.643343507427563,60.1981278341397,55.5017921998675,41.66182812384629,62.283547782868744" fill-opacity="0.25" fill="#556aca"/></g><g stroke-opacity="1" stroke="#556aca" transform="matrix(1,0,0,1,573.2424390874469,229.0306301972974)"><path d="M53.459967668922694,-2.1316282072803006e-14C54.81818977278063,22.48561392089632,30.443604794346214,73.92704104712784,13.00665437346079,84.6832004690384C-4.430296047424633,95.43935989094895,-36.49395912747971,75.94645859490797,-51.16173485638984,64.5369565314633C-65.82951058529997,53.127454468018634,-74.52920591823715,35.202380300252585,-75,16.226188088370385C-75.47079408176285,-2.750004123511818,-67.29605297201911,-38.24408488237825,-53.986499346966916,-49.320196739829925C-40.67694572191472,-60.396308597281596,-13.05042275233508,-58.450515846311305,4.857321750313187,-50.23048305633966C22.765066252961454,-42.01045026636801,52.10174556506476,-22.485613920896363,53.459967668922694,-2.1316282072803006e-14C54.81818977278063,22.48561392089632,30.443604794346214,73.92704104712784,13.00665437346079,84.6832004690384" fill-opacity="0.25" fill="#556aca"/></g><g stroke-opacity="1" stroke="#556aca" transform="matrix(1,0,0,1,564.8154195592977,369.7040419316313)"><path d="M90.15691036393218,31.934514897558607C95.10682560930553,59.198592774357564,76.53416531736303,76.20191336527446,53.66062842466075,80.53295537992369C30.78709153195846,84.86399739457292,-25.325203939380593,77.14105978716498,-47.084310992281566,57.92076698545398C-68.84341804518255,38.70047418374298,-78.49139905812534,-12.180608730391945,-76.89401389274508,-34.78880143034228C-75.29662872736482,-57.39699413029262,-54.30919180752765,-69.68460413916007,-37.50000000000003,-77.72838921424804C-20.69080819247241,-85.77217428933601,2.6849852250985933,-101.32866256617116,23.961136952420627,-83.05151188087005C45.23728867974266,-64.77436119556894,85.20699511855884,4.670437020759646,90.15691036393218,31.934514897558607C95.10682560930553,59.198592774357564,76.53416531736303,76.20191336527446,53.66062842466075,80.53295537992369" fill-opacity="0.25" fill="#556aca"/></g><g stroke-opacity="1" stroke="#556aca" transform="matrix(1,0,0,1,548.5239397045501,522.4065406525834)"><path d="M58.17830580762759,-1.718304465665085C60.223182248473236,22.539103396558215,61.61861398820805,51.258304484788745,47.23681728226816,64.9519052838329C32.85502057632828,78.64550608287706,-6.171557100174649,93.1675557333205,-28.11247442801171,80.44330032859985C-50.053391755848764,67.7190449238792,-82.38740582114632,7.005125790835418,-84.40868668475419,-11.393627144490996C-86.42996754836206,-29.79238007981741,-60.13620049665032,-18.41606482585599,-40.24015960965891,-29.949217283358635C-20.3441187226675,-41.48236974086128,18.564481067646515,-85.29769402578913,34.967558637194266,-80.59254188950688C51.37063620674202,-75.88738975322462,56.13342936678194,-25.975712327888385,58.17830580762759,-1.718304465665085C60.223182248473236,22.539103396558215,61.61861398820805,51.258304484788745,47.23681728226816,64.9519052838329" fill-opacity="0.25" fill="#556aca"/></g><g stroke-opacity="1" stroke="#556aca" transform="matrix(1,0,0,1,557.1240183678145,619.0737990182688)"><path d="M75,-33.17575383409543C76.13882093524795,-14.455217903613622,49.98738780836129,14.894138227882458,28.36221825087091,36.16289156675826C6.737048693380526,57.431644905634066,-40.636692325079814,100.4639147936191,-54.75101734494231,94.4367661991594C-68.8653423648048,88.40961760469969,-58.698824037941414,31.915869518783406,-56.32373186830407,7.105427357601002e-15C-53.94863969866673,-31.915869518783392,-53.47596841173283,-84.3650635775189,-40.50046432711828,-97.058450913541C-27.52496024250373,-109.7518382495631,2.279215251530193,-86.80744019604019,21.52929263938324,-76.16032401613259C40.77937002723628,-65.51320783622499,73.86117906475205,-51.89628976457724,75,-33.17575383409543C76.13882093524795,-14.455217903613622,49.98738780836129,14.894138227882458,28.36221825087091,36.16289156675826" fill-opacity="0.25" fill="#556aca"/></g><g stroke-opacity="1" stroke="#556aca" transform="matrix(1,0,0,1,547.4688142071573,800.7073146345541)"><path d="M90.15679510199323,-31.415510610197956C87.59535288605106,-5.234153535493803,53.70647184242866,44.15649240485395,37.50000000000001,64.45349934528093C21.29352815757135,84.75050628570791,11.651149880598933,106.68445628153904,-7.082035952578707,90.36653103236395C-25.815221785756346,74.04860578318886,-72.92972138130793,-7.700465403527911,-74.89911499906582,-33.45405214976964C-76.8685086168237,-59.20763889601136,-40.19302570824583,-54.29155761955736,-18.89839765912602,-64.15498944508641C2.396230389993786,-74.01842127061548,34.69278783546646,-98.09122290875871,52.868653295653004,-92.63464310294397C71.04451875583955,-87.17806329712923,92.71823731793539,-57.59686768490211,90.15679510199323,-31.415510610197956C87.59535288605106,-5.234153535493803,53.70647184242866,44.15649240485395,37.50000000000001,64.45349934528093" fill-opacity="0.25" fill="#556aca"/></g><g stroke-opacity="1" stroke="#556aca" transform="matrix(1,0,0,1,559.5062251745671,905.516069719712)"><path d="M57.71866029831447,31.30144694445668C57.921392201178826,51.84948666953386,50.216654616160874,38.8608811821254,37.43367279582475,46.244235514192674C24.650690975488622,53.62758984625995,-0.24028515773151682,85.88589112977604,-18.979230623702307,75.60157293686035C-37.71817608967309,65.31725474394466,-71.21760914394602,10.265161535144419,-75,-15.461673643301516C-78.78239085605398,-41.18850882174745,-60.20978932313258,-68.49571660165377,-41.67357576002615,-78.75943813381525C-23.137362196919714,-89.02315966597673,19.6519087022485,-95.38748368264906,36.2172813786386,-77.04400283627041C52.7826540550287,-58.700521989891755,57.51592839545011,10.7534072193795,57.71866029831447,31.30144694445668C57.921392201178826,51.84948666953386,50.216654616160874,38.8608811821254,37.43367279582475,46.244235514192674" fill-opacity="0.25" fill="#556aca"/></g><g stroke-opacity="1" stroke="#556aca" transform="matrix(1,0,0,1,634.6454882819323,78.33776274426859)"><path d="M90.9015335819951,-15.658692685215293C99.62095995574646,11.644476885225568,93.60060150058895,73.58584774404933,74.92085077055131,80.80713982695787C56.24110004051367,88.0284319098664,2.4756109014960153,42.19915349877088,-21.176970798230727,27.66905981223594C-44.829552497957465,13.138966125700994,-61.82966469858427,7.162752408812727,-66.99463942780915,-6.373422292251803C-72.15961415703403,-19.909596993316335,-67.0999744995554,-40.77491251024532,-52.166819173580016,-53.54798839415124C-37.233663847604625,-66.32106427805715,-1.2404329312193276,-89.3267602138433,22.604292528043192,-83.01187759568731C46.44901798730571,-76.69699497753132,82.18210720824374,-42.96186225565616,90.9015335819951,-15.658692685215293C99.62095995574646,11.644476885225568,93.60060150058895,73.58584774404933,74.92085077055131,80.80713982695787" fill-opacity="0.25" fill="#556aca"/></g><g stroke-opacity="1" stroke="#556aca" transform="matrix(1,0,0,1,630.1936189195537,194.18091725547205)"><path d="M75,-0.7670575251643328C81.03037628829713,23.21991124639752,61.10787942416581,46.40112146392553,45.27256515254794,51.50948413187725C29.437250880930073,56.617846799828975,-0.917330420018093,35.28882221339303,-20.01188562970721,29.883118482546006C-39.10644083939633,24.477414751698976,-70.17924618535568,34.88109904119156,-69.29476610558675,19.07526174679508C-68.41028602581781,3.2694244523985976,-27.769184072485615,-46.370640243118046,-14.705005151093637,-64.95190528383287C-1.6408262297016574,-83.5331703245477,-5.860526769083798,-103.10980312393862,9.090307422765143,-92.41232849749386C24.041141614614084,-81.7148538710491,68.96962371170287,-24.754026296726185,75,-0.7670575251643328C81.03037628829713,23.21991124639752,61.10787942416581,46.40112146392553,45.27256515254794,51.50948413187725" fill-opacity="0.25" fill="#556aca"/></g><g stroke-opacity="1" stroke="#556aca" transform="matrix(1,0,0,1,674.6775482713854,370.3662694749742)"><path d="M71.24893770094783,-2.1316282072803006e-14C75.78424829585191,24.575963101267153,65.638397552514,55.11331923391823,50.57670349716954,65.93863678122372C35.515009441825086,76.76395432852921,4.901582177082361,72.97876826602842,-19.121226631118887,64.9519052838329C-43.144035439320135,56.925042301637376,-87.99351014567421,34.304042142000654,-93.56014935203794,17.777458888050575C-99.12678855840167,1.250875634100499,-72.00856008259841,-17.658494120795897,-52.521061869301235,-34.20759423986755C-33.03356365600406,-50.7566943589392,2.7365066660369237,-87.2184075330239,23.364839927745102,-81.51714182637932C43.99317318945328,-75.81587611973472,66.71362710604376,-24.575963101267195,71.24893770094783,-2.1316282072803006e-14C75.78424829585191,24.575963101267153,65.638397552514,55.11331923391823,50.57670349716954,65.93863678122372" fill-opacity="0.25" fill="#556aca"/></g><g stroke-opacity="1" stroke="#556aca" transform="matrix(1,0,0,1,663.4323385864566,483.6788278321843)"><path d="M91.14006204346703,7.938533402146739C91.15090111355528,29.949304297181914,77.57383548081464,70.88693500746004,56.17934810402372,80.47046521974518C34.7848607272328,90.05399543203032,-15.383892990815006,78.85145887914844,-37.22686221727846,65.43971467585757C-59.06983144374191,52.027970472566714,-72.73512056661136,19.218314110670352,-74.87846725475701,7.105427357601002e-15C-77.02181394290267,-19.218314110670338,-71.91907250252756,-41.27114329642019,-50.086942346152355,-49.870169988164506C-28.254812189777155,-58.46919667990882,32.576479618557634,-61.22894404885107,56.114313683494196,-51.59416015046586C79.65214774843076,-41.95937625208065,91.12922297337877,-14.072237492888437,91.14006204346703,7.938533402146739C91.15090111355528,29.949304297181914,77.57383548081464,70.88693500746004,56.17934810402372,80.47046521974518" fill-opacity="0.25" fill="#556aca"/></g><g stroke-opacity="1" stroke="#556aca" transform="matrix(1,0,0,1,672.7046282527186,619.3709584869658)"><path d="M86.98949869140982,32.772875885428995C85.03177324963171,63.00424966457973,57.826653598319574,89.60231792644053,38.93023180804617,98.08273294915195C20.033810017772772,106.56314797186336,-9.911724158728315,102.78641146832767,-26.389032050230583,83.65536602169743C-42.866339941732846,64.5243205750672,-55.771409708285745,3.3451064934720023,-59.933615540967445,-16.70353973062947C-64.09582137364914,-36.75218595473094,-69.79730037960117,-25.536182990390905,-51.362267046320795,-36.6365113229114C-32.92723371304042,-47.7368396554319,27.617956835759713,-94.87374092714253,50.676584458714814,-83.30550972575247C73.73521208166991,-71.73727852436241,88.94722413318793,2.541502106278262,86.98949869140982,32.772875885428995C85.03177324963171,63.00424966457973,57.826653598319574,89.60231792644053,38.93023180804617,98.08273294915195" fill-opacity="0.25" fill="#556aca"/></g><g stroke-opacity="1" stroke="#556aca" transform="matrix(1,0,0,1,632.6698161507067,798.0550988828102)"><path d="M68.34372585714355,0.8908648354096087C69.7399328741143,23.33746833397472,70.84583242763938,41.95738580084612,56.014030565652256,53.216955122289725C41.18222870366513,64.47652444373333,0.42461559510457647,79.09209244991241,-20.647085314779183,68.44828076407126C-41.71878622466294,57.80446907823009,-64.63700202538251,12.772878579761247,-70.4161748936503,-10.645914992757248C-76.19534776191807,-34.064708565275744,-74.99761641729887,-60.261688858315786,-55.32212252438586,-72.06448067103973C-35.64662863147285,-83.86727248376368,27.025813733572846,-93.62189012017582,47.63678846382775,-81.46266586910093C68.24776319408265,-69.30344161802604,66.9475188401728,-21.555738663155502,68.34372585714355,0.8908648354096087C69.7399328741143,23.33746833397472,70.84583242763938,41.95738580084612,56.014030565652256,53.216955122289725" fill-opacity="0.25" fill="#556aca"/></g><g stroke-opacity="1" stroke="#556aca" transform="matrix(1,0,0,1,644.91404028206,934.5390565497707)"><path d="M74.14195857870286,-12.216647048006116C77.47985648690049,10.66422229997054,76.58204002773073,71.5808849484508,55.13066981633697,81.33656154912198C33.67929960494321,91.09223814979316,-29.762826111141674,54.79832550074635,-54.566262689659666,46.317412556020976C-79.36969926817765,37.8364996112956,-94.86156363176184,51.215364804493376,-93.689949654771,30.451083880769737C-92.51833567778016,9.686802957046101,-69.00211749803496,-63.86831658306957,-47.53657882771459,-78.26827298632085C-26.071040157394226,-92.66822938957213,14.823526132748288,-66.95725886179041,35.103282367151195,-55.94865453873795C55.383038601554105,-44.94005021568549,70.80406067050522,-35.09751639598277,74.14195857870286,-12.216647048006116C77.47985648690049,10.66422229997054,76.58204002773073,71.5808849484508,55.13066981633697,81.33656154912198" fill-opacity="0.25" fill="#556aca"/></g><g stroke-opacity="1" stroke="#556aca" transform="matrix(1,0,0,1,767.1624508219193,63.733961880105134)"><path d="M87.52024594200662,-2.1316282072803006e-14C93.49830830468356,21.828119893085706,84.72838501184032,58.63549266525793,63.904104961795134,66.64191752544878C43.07982491174996,74.64834238563962,-14.410494326482866,62.351014778664094,-37.42543435826442,48.03854916114504C-60.440374390045974,33.72608354362599,-72.66767698866401,-1.6090113071040513,-74.1855352288942,-19.23287617966553C-75.70339346912438,-36.85674105222701,-63.56946146875012,-50.188985798657164,-46.53258379964551,-57.70464007422384C-29.495706130540892,-65.22029434979052,5.69359249545813,-73.94424184543622,28.035730785733488,-64.32680183306559C50.37786907600885,-54.70936182069495,81.54218357932969,-21.82811989308575,87.52024594200662,-2.1316282072803006e-14C93.49830830468356,21.828119893085706,84.72838501184032,58.63549266525793,63.904104961795134,66.64191752544878" fill-opacity="0.25" fill="#556aca"/></g><g stroke-opacity="1" stroke="#556aca" transform="matrix(1,0,0,1,728.2940921506938,184.05572300882773)"><path d="M92.07391155994284,14.69503117435665C91.23752741501711,33.523313426004464,65.52880456183847,49.33032781577971,43.93308239003366,59.867042100420186C22.337360218228856,70.40375638506066,-15.257193214618678,85.07338700792454,-37.50042147088599,77.9153168821995C-59.7436497271533,70.75724675647447,-87.9750497946104,40.72982504040872,-89.5262871475702,16.91862134606999C-91.07752450053,-6.892582348268739,-69.88745798983784,-53.28169315791009,-46.8078455886448,-64.95190528383287C-23.728233187451767,-76.62211740975565,25.804427734823403,-66.37714081916494,48.95138725958801,-53.10265140946668C72.09834678435261,-39.828161999768426,92.91029570486857,-4.13325107729116,92.07391155994284,14.69503117435665C91.23752741501711,33.523313426004464,65.52880456183847,49.33032781577971,43.93308239003366,59.867042100420186" fill-opacity="0.25" fill="#556aca"/></g><g stroke-opacity="1" stroke="#556aca" transform="matrix(1,0,0,1,740.4252236493995,381.55006483204465)"><path d="M89.74246071657772,6.644352836046679C91.94455660389063,30.0602916236315,68.13760110684746,59.5923917558593,49.57995834252546,75.54372744167601C31.022315578203457,91.49506312749271,-2.452483063157473,115.96106301133739,-21.60339586935428,102.35236695094692C-40.75430867555109,88.74367089055644,-56.86749942473868,23.34493149067072,-65.32551849465538,-6.10844892066681C-73.78353756457209,-35.561829332004336,-89.30032720773836,-64.56067278988392,-72.35151028885447,-74.36791551707827C-55.40269336997058,-84.17515824427262,9.351721184409278,-78.45395000935375,36.36738301864798,-64.95190528383293C63.38304485288668,-51.4498605583121,87.54036482926482,-16.771585951538142,89.74246071657772,6.644352836046679C91.94455660389063,30.0602916236315,68.13760110684746,59.5923917558593,49.57995834252546,75.54372744167601" fill-opacity="0.25" fill="#556aca"/></g><g stroke-opacity="1" stroke="#556aca" transform="matrix(1,0,0,1,752.3903344051433,472.7192188437892)"><path d="M67.20204673542227,8.44533170132079C64.45021913857876,34.717657620020546,35.52283634469527,90.48730812334617,20.989034418938854,98.59920499453514C6.455232493182438,106.71110186572412,1.4794076978011468,78.34945256453034,-20.000764819116227,57.1167129284546C-41.480937336033605,35.88397329237885,-108.0938399981546,-11.099351766466267,-107.89200068256538,-28.79723282191936C-107.69016136697616,-46.49511387737245,-43.02172903934173,-44.03098712163995,-18.78972892558084,-49.07057340426396C5.442271188180051,-54.11015968688797,23.16803738983276,-68.62073470192752,37.49999999999995,-59.0347505176634C51.83196261016714,-49.44876633339927,69.95387433226578,-17.82699421737897,67.20204673542227,8.44533170132079C64.45021913857876,34.717657620020546,35.52283634469527,90.48730812334617,20.989034418938854,98.59920499453514" fill-opacity="0.25" fill="#556aca"/></g><g stroke-opacity="1" stroke="#556aca" transform="matrix(1,0,0,1,747.0039888743468,662.4071434471887)"><path d="M59.04999596353558,-14.914127648820301C54.68751914904283,10.923176845243127,34.781108953426354,54.45804380971491,18.689442959503758,64.9519052838329C2.597776965581165,75.44576675795089,-19.754468055210648,63.53203375696468,-37.499999999999986,48.04904119588767C-55.24553194478932,32.566048634810656,-93.45996920983195,-7.952276185617855,-87.78374870923228,-27.946050082629178C-82.10752820863262,-47.9398239796405,-25.550685755684054,-61.55929025319386,-3.442676996401957,-71.91360218618027C18.66533176288014,-82.26791411916669,34.448858353137354,-99.57183410344099,44.864303846460274,-90.07192168054766C55.279749339783194,-80.57200925765433,63.41247277802833,-40.75143214288373,59.04999596353558,-14.914127648820301C54.68751914904283,10.923176845243127,34.781108953426354,54.45804380971491,18.689442959503758,64.9519052838329" fill-opacity="0.25" fill="#556aca"/></g><g stroke-opacity="1" stroke="#556aca" transform="matrix(1,0,0,1,756.2366825767601,771.5233177139776)"><path d="M75,-9.389428390428957C73.23157792971841,12.765826783882403,67.03579648913767,48.451076374848995,45.59447689253416,62.936638527865156C24.153157295930658,77.42220068088132,-32.188672780324055,88.20127815354518,-53.64791757962101,77.52394452766801C-75.10716237891796,66.84661090179084,-87.34281111765658,20.112781597455548,-83.16099190324756,-1.1273632273978293C-78.97917268883855,-22.367508052251207,-51.784669162745416,-38.439002873018055,-28.55700229316689,-49.91692442145225C-5.329335423588358,-61.39484596988645,38.94550893202916,-76.74947518984023,56.205009314223645,-69.99489251800301C73.46450969641813,-63.2403098461658,76.76842207028159,-31.544683564740318,75,-9.389428390428957C73.23157792971841,12.765826783882403,67.03579648913767,48.451076374848995,45.59447689253416,62.936638527865156" fill-opacity="0.25" fill="#556aca"/></g><g stroke-opacity="1" stroke="#556aca" transform="matrix(1,0,0,1,738.2941652753934,894.0881118572603)"><path d="M62.451391628325396,-15.908036223634433C56.21446458109566,9.417752328555334,52.2149119511961,51.47524836592168,37.47319497341479,64.9519052838329C22.731477995633483,78.42856220174413,-10.093059480289762,75.77722283113839,-25.998910238362456,64.9519052838329C-41.90476099643515,54.12658773652742,-53.77938217428608,25.6087705458909,-57.96190957502137,7.105427357601002e-15C-62.14443697575667,-25.608770545890884,-73.23685244807666,-74.20024698662816,-51.09407464277423,-88.70071799151245C-28.951296837471805,-103.20118899639674,55.97051287827658,-99.13493965728536,74.89475725679318,-87.0028260293057C93.81900163530979,-74.87071240132603,68.68831867555512,-41.2338247758242,62.451391628325396,-15.908036223634433C56.21446458109566,9.417752328555334,52.2149119511961,51.47524836592168,37.47319497341479,64.9519052838329" fill-opacity="0.25" fill="#556aca"/></g><g stroke-opacity="1" stroke="#556aca" transform="matrix(1,0,0,1,827.6755780370747,60.901686426669414)"><path d="M39.902295006451396,4.184207484013612C44.36212073351344,24.242608417084636,60.652321675216996,54.881346111619244,47.75193917414177,64.9519052838329C34.85155667306654,75.02246445604656,-17.254133598814175,80.48912638703565,-37.499999999999986,64.60756251729556C-57.74586640118579,48.72599864755547,-71.57870496201426,-6.381033065470007,-73.7232592329731,-30.33747793460765C-75.86781350393196,-54.293922803745296,-66.15336629987685,-74.95426963419938,-50.36732562575308,-79.13110669753031C-34.58128495162932,-83.30794376086125,5.948048039735395,-69.28438601151723,20.992984811769475,-55.398500314593235C36.03792158380355,-41.51261461766925,35.44246927938935,-15.874193449057412,39.902295006451396,4.184207484013612C44.36212073351344,24.242608417084636,60.652321675216996,54.881346111619244,47.75193917414177,64.9519052838329" fill-opacity="0.25" fill="#556aca"/></g><g stroke-opacity="1" stroke="#556aca" transform="matrix(1,0,0,1,865.96005067739,220.52466401467234)"><path d="M41.83801577108417,15.40694459035629C38.72000341901463,40.09978101312984,48.91169555852059,75.37698892070973,37.50000000000001,83.6344823696225C26.088304441479423,91.89197581853527,-8.064489502951517,76.20173331345256,-26.63215758003932,64.9519052838329C-45.19982565712712,53.70207725421324,-70.61887108270895,37.7861492865155,-73.90600846252681,16.13551419190454C-77.19314584234468,-5.515120902706421,-68.04066228810389,-51.508896890678976,-46.354981858946545,-64.95190528383287C-24.6693014297892,-78.39491367698677,41.50924117407881,-77.91567781271704,56.208074112417265,-64.52253616701884C70.90690705075572,-51.12939452132065,44.956028123153715,-9.285891832417267,41.83801577108417,15.40694459035629C38.72000341901463,40.09978101312984,48.91169555852059,75.37698892070973,37.50000000000001,83.6344823696225" fill-opacity="0.25" fill="#556aca"/></g><g stroke-opacity="1" stroke="#556aca" transform="matrix(1,0,0,1,859.7870925611594,388.5210357728402)"><path d="M75,-14.964194387305373C78.96499389728912,9.030032064798924,47.94971922732991,89.29255487666913,28.554099707949156,97.72125093205055C9.158480188568404,106.14994698743197,-24.400630167753746,49.37985371404355,-41.37371711628451,35.60798194498318C-58.346804064815274,21.836110175922812,-76.76786807483401,28.731750637724772,-73.28442198323543,15.090020317688356C-69.80097589163685,1.4482899976519406,-33.48113361793463,-36.0200452921914,-20.473040566692987,-46.24239997523532C-7.464947515451344,-56.46475465827925,-11.148037103567741,-51.457142045230206,4.764136324214423,-46.24410778057521C20.676309751996587,-41.03107351592022,71.03500610271088,-38.95842083940967,75,-14.964194387305373C78.96499389728912,9.030032064798924,47.94971922732991,89.29255487666913,28.554099707949156,97.72125093205055" fill-opacity="0.25" fill="#556aca"/></g><g stroke-opacity="1" stroke="#556aca" transform="matrix(1,0,0,1,838.1979402391893,522.0365712185995)"><path d="M102.84058359282432,-0.002226878542586519C103.66326943588423,23.753971495009637,70.2117774580521,59.69150440358148,47.95640451174944,68.14489855329478C25.70103156544678,76.59829270300808,-7.081824353723441,58.95759489428807,-30.691654084991647,50.71813801973721C-54.301483816259854,42.47868114518635,-92.86420166844644,34.49961679214831,-93.70257387585978,18.7081573059896C-94.54094608327313,2.9166978198308957,-58.50903121767997,-28.51387739821366,-35.72188732947168,-44.03061889721502C-12.934743441263386,-59.54736039621638,19.926544299673964,-81.73035702446398,43.020289453389964,-74.39229168801857C66.11403460710596,-67.05422635157316,102.0178977497644,-23.75842525209481,102.84058359282432,-0.002226878542586519C103.66326943588423,23.753971495009637,70.2117774580521,59.69150440358148,47.95640451174944,68.14489855329478" fill-opacity="0.25" fill="#556aca"/></g><g stroke-opacity="1" stroke="#556aca" transform="matrix(1,0,0,1,874.2045306743263,612.3577691534534)"><path d="M81.64627522711588,-7.662519942801364C84.61577011107654,16.231262681778162,55.13554891731331,68.67444961396464,39.23598648695155,80.49874307757554C23.3364240565898,92.32303654118644,9.516481771907536,74.56892248846604,-13.751099355054649,63.28324083886404C-37.01868048201683,51.997559189262034,-93.56671496310537,33.46029247378075,-100.36950027482156,12.784653179963506C-107.17228558653775,-7.890986113853735,-74.86589746835332,-48.16249394906188,-54.567811225351804,-60.7705949240394C-34.26972498235028,-73.37869589901692,-1.2833305588903805,-71.71529850010795,21.419017183187567,-62.86395266990161C44.12136492526551,-54.012606839695266,78.67678034315522,-31.55630256738089,81.64627522711588,-7.662519942801364C84.61577011107654,16.231262681778162,55.13554891731331,68.67444961396464,39.23598648695155,80.49874307757554" fill-opacity="0.25" fill="#556aca"/></g><g stroke-opacity="1" stroke="#556aca" transform="matrix(1,0,0,1,848.3879470805309,764.4514798496422)"><path d="M73.49007823467093,15.851448646052681C78.3051645326611,40.656228515210806,74.17084492160157,71.87632131522051,52.93456801184266,81.97706775658702C31.69829110208374,92.07781419795353,-37.35999057463273,89.88320968508847,-53.927583223882586,76.45592729425178C-70.49517587313244,63.02864490341509,-46.63422563579353,25.060665948308586,-46.47098788365649,1.413373411566873C-46.307750131519455,-22.23391912517484,-64.70066306232009,-54.05033044787705,-52.94815671106039,-65.42782792619849C-41.195650359800695,-76.80532540451992,2.971011066279811,-80.39815755373694,24.0440502239017,-66.85161145836175C45.117089381523584,-53.30506536298655,68.67499193668077,-8.953331223105444,73.49007823467093,15.851448646052681C78.3051645326611,40.656228515210806,74.17084492160157,71.87632131522051,52.93456801184266,81.97706775658702" fill-opacity="0.25" fill="#556aca"/></g><g stroke-opacity="1" stroke="#556aca" transform="matrix(1,0,0,1,867.7582530282367,942.0770523116238)"><path d="M56.46323663312225,-1.324291760299026C58.2234332272268,15.81709861086096,59.89287950902583,45.53128051590323,45.84494788320968,53.841548928695794C31.797016257393523,62.15181734148836,-9.842265879403865,57.49468138634323,-27.824353121774678,48.53731871645636C-45.80644036414549,39.57995604656949,-62.92109929819784,21.618503067776697,-62.04757557101521,0.09737290937456322C-61.17405184383258,-21.42375724902757,-38.805101406945155,-72.40543453268334,-22.583210758678888,-80.58946223395645C-6.3613201104126205,-88.77348993522956,22.109360419948864,-62.2176550438737,35.28376831858239,-49.00679329826413C48.458176217215915,-35.79593155265456,54.7030400390177,-18.465682131459012,56.46323663312225,-1.324291760299026C58.2234332272268,15.81709861086096,59.89287950902583,45.53128051590323,45.84494788320968,53.841548928695794" fill-opacity="0.25" fill="#556aca"/></g></svg>